<svg width="18" height="18" viewBox="0 0 18 18" fill="none" xmlns="http://www.w3.org/2000/svg">
<path d="M11.4 2.25C11.7957 2.25564 12.1731 2.41738 12.45 2.7L15.3 5.55C15.5826 5.82695 15.7444 6.20435 15.75 6.6V14.25C15.75 15.0779 15.0779 15.75 14.25 15.75H3.75C2.92213 15.75 2.25 15.0779 2.25 14.25V3.75C2.25 2.92213 2.92213 2.25 3.75 2.25H11.4" stroke="white" stroke-width="1.5" stroke-linecap="round" stroke-linejoin="round"/>
<path d="M12.75 15.75V10.5C12.75 10.0861 12.4139 9.75 12 9.75H6C5.58606 9.75 5.25 10.0861 5.25 10.5V15.75M5.25 2.25V5.25C5.25 5.66394 5.58606 6 6 6H11.25" stroke="white" stroke-width="1.5" stroke-linecap="round" stroke-linejoin="round"/>
</svg>
